<?xml version="1.0" standalone="no"?><!DOCTYPE svg PUBLIC "-//W3C//DTD SVG 1.1//EN" "http://www.w3.org/Graphics/SVG/1.1/DTD/svg11.dtd"><svg t="1599894342995" class="icon" viewBox="0 0 1024 1024" version="1.1" xmlns="http://www.w3.org/2000/svg" p-id="6950" xmlns:xlink="http://www.w3.org/1999/xlink" width="200" height="200"><defs><style type="text/css"></style></defs><path d="M917.333333 725.333333H896v-42.666666a384 384 0 0 0-341.333333-381.44V234.666667a21.333333 21.333333 0 0 0-21.333334-21.333334h-42.666666a21.333333 21.333333 0 0 0-21.333334 21.333334v66.56A384 384 0 0 0 128 682.666667v42.666666h-21.333333a21.333333 21.333333 0 0 0-21.333334 21.333334v42.666666a21.333333 21.333333 0 0 0 21.333334 21.333334h810.666666a21.333333 21.333333 0 0 0 21.333334-21.333334v-42.666666a21.333333 21.333333 0 0 0-21.333334-21.333334z" p-id="6951"></path></svg>